<svg xmlns="http://www.w3.org/2000/svg" fill="none" viewBox="0 0 40 40" class="design-iconfont" width="128" height="128">
  <path fill="#0070FF" fill-opacity=".1" d="M20 0A20 20 0 1 0 20 40A20 20 0 1 0 20 0Z"></path>
  <g clip-path="url(#7ss53j2fm__clip0_1136_27798)" stroke="#0070FF" stroke-width="1.6" stroke-linejoin="round">
    <path d="M20.0003 28.3327C24.6027 28.3327 28.3337 24.6017 28.3337 19.9993C28.3337 15.397 24.6027 11.666 20.0003 11.666C15.398 11.666 11.667 15.397 11.667 19.9993C11.667 24.6017 15.398 28.3327 20.0003 28.3327Z"></path>
    <path d="M17.5 19.166H22.5" stroke-linecap="round"></path>
    <path d="M17.5 21.666H22.5" stroke-linecap="round"></path>
    <path d="M20.0039 19.166V24.166" stroke-linecap="round"></path>
    <path d="M22.5 16.25L20 18.75L17.5 16.25" stroke-linecap="round"></path>
  </g>
  <defs>
    <clipPath id="7ss53j2fm__clip0_1136_27798">
      <path fill="#fff" transform="translate(10 10)" d="M0 0H20V20H0z"></path>
    </clipPath>
  </defs>
</svg>