<?xml version="1.0" standalone="no"?><!DOCTYPE svg PUBLIC "-//W3C//DTD SVG 1.1//EN" "http://www.w3.org/Graphics/SVG/1.1/DTD/svg11.dtd"><svg t="1684217818563" class="icon" viewBox="0 0 1024 1024" version="1.1" xmlns="http://www.w3.org/2000/svg" p-id="8318" xmlns:xlink="http://www.w3.org/1999/xlink" width="128" height="128"><path d="M443.499757 0.539023h-409.384391a34.115366 34.115366 0 0 0-34.115366 34.115366v409.384391a34.115366 34.115366 0 0 0 34.115366 34.115365h409.384391a34.115366 34.115366 0 0 0 34.115366-34.115365v-409.384391a34.115366 34.115366 0 0 0-34.115366-34.115366zM409.384391 409.923414H68.230732V68.769755h341.153659zM443.499757 546.384877h-409.384391a34.115366 34.115366 0 0 0-34.115366 34.115366v409.384391a34.115366 34.115366 0 0 0 34.115366 34.115366h409.384391a34.115366 34.115366 0 0 0 34.115366-34.115366v-409.384391a34.115366 34.115366 0 0 0-34.115366-34.115366zM409.384391 955.769268H68.230732V614.615609h341.153659zM760.77266 467.919536a34.115366 34.115366 0 0 0 48.443819 0l204.692196-204.692196a34.115366 34.115366 0 0 0 0-48.443819l-204.692196-204.692196a34.115366 34.115366 0 0 0-48.443819 0l-204.692196 204.692196a34.115366 34.115366 0 0 0 0 48.443819z m23.880756-385.503635l156.248376 156.930683-156.248376 156.248376L628.40504 239.346584zM989.345611 546.384877h-409.384391a34.115366 34.115366 0 0 0-34.115365 34.115366v409.384391a34.115366 34.115366 0 0 0 34.115365 34.115366h409.384391a34.115366 34.115366 0 0 0 34.115366-34.115366v-409.384391a34.115366 34.115366 0 0 0-34.115366-34.115366z m-34.115366 409.384391H614.076586V614.615609h341.153659z" fill="#666666" p-id="8319"></path></svg>