<?xml version="1.0" standalone="no"?><!DOCTYPE svg PUBLIC "-//W3C//DTD SVG 1.1//EN" "http://www.w3.org/Graphics/SVG/1.1/DTD/svg11.dtd"><svg t="1684217872222" class="icon" viewBox="0 0 1024 1024" version="1.1" xmlns="http://www.w3.org/2000/svg" p-id="9981" xmlns:xlink="http://www.w3.org/1999/xlink" width="128" height="128"><path d="M717.013333 213.333333h85.333334a30.506667 30.506667 0 1 0 0-61.013333h-85.333334a30.506667 30.506667 0 1 0 0 61.013333zM717.013333 380.586667h85.333334a30.506667 30.506667 0 1 0 0-61.013334h-85.333334a30.506667 30.506667 0 1 0 0 61.013334z" p-id="9982"></path><path d="M917.333333 600.32a30.506667 30.506667 0 0 0 4.906667-15.573333V97.066667a30.72 30.72 0 0 0-31.146667-30.506667h-448a30.72 30.72 0 0 0-31.146666 30.506667v225.28a215.893333 215.893333 0 0 0-200.746667 213.333333v7.68a214.4 214.4 0 0 0-157.866667 205.226667 216.533333 216.533333 0 0 0 218.453334 213.333333h430.293333A244.906667 244.906667 0 0 0 949.333333 720.426667a237.44 237.44 0 0 0-32-120.106667zM473.386667 296.746667h385.706666v105.6h-256a21.333333 21.333333 0 0 0-3.626666 0 219.52 219.52 0 0 0-126.933334-77.226667z m385.706666 166.613333V533.333333a250.453333 250.453333 0 0 0-217.6-47.786666 195.2 195.2 0 0 0-7.04-22.4z m0-335.36v108.373333H473.386667V128z m-157.013333 761.6H271.786667A140.8 140.8 0 0 1 256 608.64a36.906667 36.906667 0 0 0 26.026667-14.933333 36.266667 36.266667 0 0 0 6.4-29.013334 134.826667 134.826667 0 0 1-3.2-29.226666 144 144 0 0 1 287.573333-2.133334v2.773334a36.48 36.48 0 0 0 17.706667 30.933333 37.76 37.76 0 0 0 36.266666 1.706667 175.36 175.36 0 0 1 75.52-17.28 169.173333 169.173333 0 1 1 0 338.133333z" p-id="9983"></path></svg>